<svg width="40" height="43" viewBox="0 0 40 43" fill="none" xmlns="http://www.w3.org/2000/svg">
<path d="M14.6493 36.1503C4.89979 39.0752 4.89979 31.2756 1 30.3006L14.6493 36.1503ZM28.2985 42V34.4539C28.3716 33.5241 28.246 32.5894 27.93 31.712C27.614 30.8345 27.1148 30.0343 26.4656 29.3647C32.5883 28.6822 39.0229 26.3619 39.0229 15.7154C39.0224 12.9931 37.9752 10.3751 36.0981 8.40334C36.9869 6.02156 36.9241 3.3889 35.9226 1.05224C35.9226 1.05224 33.6217 0.369781 28.2985 3.93809C23.8294 2.72685 19.1184 2.72685 14.6493 3.93809C9.32604 0.369781 7.02517 1.05224 7.02517 1.05224C6.02366 3.3889 5.96081 6.02156 6.84968 8.40334C4.95853 10.3897 3.91026 13.0313 3.92484 15.7739C3.92484 26.3424 10.3595 28.6627 16.4822 29.4232C15.8406 30.0861 15.3459 30.8767 15.0301 31.7434C14.7143 32.6102 14.5845 33.5337 14.6493 34.4539V42" fill="#DBEBFA"/>
<path d="M28.2985 42V34.4539C28.3716 33.5241 28.246 32.5894 27.93 31.712C27.614 30.8345 27.1148 30.0343 26.4656 29.3647C32.5883 28.6822 39.0229 26.3619 39.0229 15.7154C39.0224 12.9931 37.9752 10.3751 36.0981 8.40334C36.9869 6.02156 36.9241 3.3889 35.9226 1.05224C35.9226 1.05224 33.6217 0.369781 28.2985 3.93809C23.8294 2.72685 19.1184 2.72685 14.6493 3.93809C9.32604 0.369781 7.02517 1.05224 7.02517 1.05224C6.02366 3.3889 5.96081 6.02156 6.84968 8.40334C4.95853 10.3897 3.91026 13.0313 3.92484 15.7739C3.92484 26.3424 10.3595 28.6627 16.4822 29.4232C15.8406 30.0861 15.3459 30.8767 15.0301 31.7434C14.7143 32.6102 14.5845 33.5337 14.6493 34.4539V42M14.6493 36.1503C4.89979 39.0752 4.89979 31.2756 1 30.3006L14.6493 36.1503Z" stroke="#7B99B5" stroke-linecap="round" stroke-linejoin="round"/>
</svg>
