<svg xmlns="http://www.w3.org/2000/svg" xmlns:xlink="http://www.w3.org/1999/xlink" width="512" height="512" enable-background="new 0 0 512 512" version="1" viewBox="0 0 512 512"><switch><g><defs><path id="a" d="M511,369.629c0,11.511-9.418,20.93-20.93,20.93H21.929C10.418,390.559,1,381.14,1,369.629V142.371
					c0-11.512,9.418-20.93,20.929-20.93H490.07c11.512,0,20.93,9.418,20.93,20.93V369.629z"/></defs><clipPath id="b"><use overflow="visible" xlink:href="#a"/></clipPath><rect width="512.4" height="91.444" x="-.4" y="118.667" fill="#F78D42" clip-path="url(#b)"/><rect width="512.4" height="91.444" x="-.4" y="210.111" fill="#FFF" clip-path="url(#b)"/><rect width="512.4" height="91.444" x="-.4" y="301.556" fill="#4DB472" clip-path="url(#b)"/><circle cx="255.8" cy="255.833" r="36.578" fill="#24467C" clip-path="url(#b)"/><circle cx="255.8" cy="255.834" r="32.006" fill="#FFF" clip-path="url(#b)"/><circle cx="255.8" cy="255.833" r="6.401" fill="#24467C" clip-path="url(#b)"/><circle cx="287.532" cy="260.011" r="1.6" fill="#24467C" clip-path="url(#b)"/><path fill="#24467C" d="M255.8,287.84l1.097-19.205l-1.097-9.144l-1.097,9.144L255.8,287.84z" clip-path="url(#b)"/><circle cx="285.37" cy="268.082" r="1.6" fill="#24467C" clip-path="url(#b)"/><path fill="#24467C" d="M247.517,286.748l6.03-18.265l1.307-9.116l-3.427,8.548L247.517,286.748z" clip-path="url(#b)"/><circle cx="281.192" cy="275.317" r="1.601" fill="#24467C" clip-path="url(#b)"/><path fill="#24467C" d="M239.798,283.551l10.552-16.082l3.621-8.468l-5.522,7.371L239.798,283.551z" clip-path="url(#b)"/><circle cx="275.284" cy="281.226" r="1.6" fill="#24467C" clip-path="url(#b)"/><path fill="#24467C" d="M233.169,278.465l14.354-12.803l5.69-7.241l-7.241,5.689L233.169,278.465z" clip-path="url(#b)"/><circle cx="268.048" cy="285.402" r="1.601" fill="#24467C" clip-path="url(#b)"/><path fill="#24467C" d="M228.083,271.837l17.179-8.652l7.371-5.522l-8.468,3.622L228.083,271.837z" clip-path="url(#b)"/><circle cx="259.978" cy="287.565" r="1.601" fill="#24467C" clip-path="url(#b)"/><path fill="#24467C" d="M224.885,264.117l18.834-3.91l8.548-3.428l-9.117,1.308L224.885,264.117z" clip-path="url(#b)"/><circle cx="251.623" cy="287.565" r="1.6" fill="#24467C" clip-path="url(#b)"/><path fill="#24467C" d="M223.794,255.833l19.204,1.097l9.145-1.097l-9.145-1.097L223.794,255.833z" clip-path="url(#b)"/><circle cx="243.552" cy="285.402" r="1.601" fill="#24467C" clip-path="url(#b)"/><path fill="#24467C" d="M224.885,247.55l18.265,6.03l9.117,1.307l-8.548-3.427L224.885,247.55z" clip-path="url(#b)"/><circle cx="236.317" cy="281.226" r="1.601" fill="#24467C" clip-path="url(#b)"/><path fill="#24467C" d="M228.083,239.831l16.082,10.552l8.468,3.622l-7.371-5.523L228.083,239.831z" clip-path="url(#b)"/><circle cx="230.408" cy="275.317" r="1.601" fill="#24467C" clip-path="url(#b)"/><path fill="#24467C" d="M233.169,233.202l12.803,14.354l7.241,5.69l-5.69-7.242L233.169,233.202z" clip-path="url(#b)"/><circle cx="226.231" cy="268.082" r="1.6" fill="#24467C" clip-path="url(#b)"/><path fill="#24467C" d="M239.798,228.116l8.65,17.179l5.522,7.371l-3.621-8.468L239.798,228.116z" clip-path="url(#b)"/><circle cx="224.069" cy="260.011" r="1.6" fill="#24467C" clip-path="url(#b)"/><path fill="#24467C" d="M247.517,224.918l3.91,18.833l3.427,8.549l-1.307-9.117L247.517,224.918z" clip-path="url(#b)"/><circle cx="224.069" cy="251.656" r="1.6" fill="#24467C" clip-path="url(#b)"/><path fill="#24467C" d="M255.8,223.828l-1.097,19.204l1.097,9.145l1.097-9.145L255.8,223.828z" clip-path="url(#b)"/><circle cx="226.231" cy="243.586" r="1.601" fill="#24467C" clip-path="url(#b)"/><path fill="#24467C" d="M264.083,224.918l-6.03,18.265l-1.307,9.117l3.428-8.549L264.083,224.918z" clip-path="url(#b)"/><circle cx="230.408" cy="236.35" r="1.6" fill="#24467C" clip-path="url(#b)"/><path fill="#24467C" d="M271.803,228.116l-10.552,16.082l-3.622,8.468l5.522-7.371L271.803,228.116z" clip-path="url(#b)"/><circle cx="236.317" cy="230.442" r="1.6" fill="#24467C" clip-path="url(#b)"/><path fill="#24467C" d="M278.432,233.202l-14.355,12.803l-5.689,7.242l7.242-5.69L278.432,233.202z" clip-path="url(#b)"/><circle cx="243.552" cy="226.264" r="1.6" fill="#24467C" clip-path="url(#b)"/><path fill="#24467C" d="M283.519,239.831l-17.18,8.65l-7.371,5.523l8.468-3.622L283.519,239.831z" clip-path="url(#b)"/><circle cx="251.623" cy="224.102" r="1.6" fill="#24467C" clip-path="url(#b)"/><path fill="#24467C" d="M286.716,247.55l-18.834,3.91l-8.548,3.427l9.116-1.307L286.716,247.55z" clip-path="url(#b)"/><circle cx="259.978" cy="224.102" r="1.601" fill="#24467C" clip-path="url(#b)"/><path fill="#24467C" d="M287.806,255.833l-19.203-1.097l-9.145,1.097l9.145,1.097L287.806,255.833z" clip-path="url(#b)"/><circle cx="268.048" cy="226.264" r="1.601" fill="#24467C" clip-path="url(#b)"/><path fill="#24467C" d="M286.716,264.117l-18.266-6.03l-9.116-1.308l8.548,3.428L286.716,264.117z" clip-path="url(#b)"/><circle cx="275.284" cy="230.442" r="1.6" fill="#24467C" clip-path="url(#b)"/><path fill="#24467C" d="M283.519,271.837l-16.083-10.553l-8.468-3.622l7.371,5.522L283.519,271.837z" clip-path="url(#b)"/><circle cx="281.192" cy="236.35" r="1.6" fill="#24467C" clip-path="url(#b)"/><path fill="#24467C" d="M278.432,278.465l-12.803-14.354l-7.242-5.689l5.689,7.241L278.432,278.465z" clip-path="url(#b)"/><circle cx="285.37" cy="243.586" r="1.6" fill="#24467C" clip-path="url(#b)"/><path fill="#24467C" d="M271.803,283.551l-8.651-17.179l-5.522-7.371l3.622,8.468L271.803,283.551z" clip-path="url(#b)"/><circle cx="287.532" cy="251.656" r="1.6" fill="#24467C" clip-path="url(#b)"/><path fill="#24467C" d="M264.083,286.748l-3.909-18.833l-3.428-8.548l1.307,9.116L264.083,286.748z" clip-path="url(#b)"/></g></switch></svg>