<svg width="43" height="41" viewBox="0 0 43 41" fill="none" xmlns="http://www.w3.org/2000/svg">
<path d="M9.76134 41V13.3374H0.543829V41H9.76134ZM5.15378 9.55824C8.36808 9.55824 10.3688 7.43407 10.3688 4.77957C10.3089 2.06521 8.36821 0 5.21477 0C2.06183 0 0 2.06525 0 4.77957C0 7.43419 2.00026 9.55824 5.0936 9.55824H5.15349H5.15378ZM14.8632 41H24.0807V25.5518C24.0807 24.7251 24.1406 23.8992 24.384 23.3081C25.0504 21.6563 26.567 19.9455 29.1133 19.9455C32.4487 19.9455 33.7831 22.4822 33.7831 26.2009V40.9998H43V25.1383C43 16.6414 38.4526 12.6879 32.388 12.6879C27.4155 12.6879 25.2323 15.4604 24.0194 17.3488H24.0809V13.3368H14.8634C14.9844 15.9325 14.8634 40.9994 14.8634 40.9994L14.8632 41Z" fill="#DBEBFA"/>
</svg>
