<svg width="211" height="190" viewBox="0 0 211 190" fill="none" xmlns="http://www.w3.org/2000/svg">
<path fill-rule="evenodd" clip-rule="evenodd" d="M113.574 65.6109C127.411 65.6109 147.291 86.0558 149.512 88.3866L153.735 92.8165L149.512 97.2494C147.291 99.5802 127.411 120.022 113.574 120.022C98.9234 120.022 90.6934 108.925 87.3548 100.73C85.4285 102.374 83.6323 104.235 81.9895 106.288C78.1666 111.118 74.7137 116.016 72.2222 124.8C72.0849 124.931 71.9521 125.142 71.8236 125.425C70.9385 131.156 70.5686 139.209 70.2673 145.769V145.769C70.2096 147.027 70.1543 148.23 70.0984 149.351C70.0984 160.923 70.0984 162.506 70.6083 178.138C70.7651 177.818 71.0789 177.147 71.5495 176.124C72.0462 175.069 72.4253 174.286 72.6868 173.774C72.9482 173.231 73.3404 172.431 73.8633 171.377C74.4124 170.322 74.8699 169.49 75.2359 168.883C75.602 168.244 76.0726 167.461 76.6478 166.533C77.2491 165.606 77.772 164.871 78.2165 164.328C78.6871 163.752 79.2361 163.145 79.8636 162.506C80.4911 161.834 81.0924 161.307 81.6676 160.923C83.001 160.092 84.4259 159.676 85.9423 159.676C87.4588 159.676 88.5961 160.188 89.3543 161.211C90.1386 162.234 90.5308 163.608 90.5308 165.335C90.5308 167.061 89.8772 169.97 88.5699 174.062C87.2627 178.122 86.609 180.631 86.609 181.59C86.609 182.549 86.8182 183.029 87.2365 183.029C88.3346 183.029 89.9948 180.999 92.2172 176.939L93.9035 178.857C92.2302 182.373 90.4785 185.011 88.6484 186.769C86.8444 188.527 85.3541 189.406 84.1776 189.406C83.0272 189.406 82.1382 188.959 81.5108 188.063C80.8833 187.168 80.5695 185.89 80.5695 184.227C80.5695 182.565 81.1186 179.896 82.2167 176.22C83.3148 172.543 83.8638 169.922 83.8638 168.356C83.8638 166.757 83.4063 165.958 82.4912 165.958C81.6023 165.958 80.5172 166.741 79.2361 168.308C77.955 169.842 76.7262 171.728 75.5497 173.966C74.9106 175.159 74.3129 176.178 73.7283 177.174C72.5431 179.195 71.4116 181.123 70.0984 184.227L68.0591 188.063H61.366L61.3763 187.97H61.3658C61.3658 187.97 66.2982 111.513 65.9626 109.511C64.5662 101.457 61.7964 93.3929 58.7473 85.6579C56.2839 79.5553 53.5845 73.5993 50.6583 67.8102C48.2088 69.245 42.7127 71.9455 36.0458 71.9455C27.9311 71.9455 20.5057 67.9198 14.569 60.3102C3.90487 46.6448 0.858354 11.0276 0.54576 7.00502L0 0L5.54984 0.714286C8.68603 1.10902 36.5198 5.0282 47.2018 18.7281C60.318 35.542 57.2766 56.0589 53.8329 64.5552L53.6715 64.953C56.9614 70.7143 60.1027 76.6197 62.9468 82.7945C66.4648 90.6078 69.7291 98.6467 71.7635 107.735C71.9268 108.492 72.0608 109.275 72.1951 110.058L72.2222 110.216C74.0221 107.027 76.1269 104.111 78.492 101.532C80.7092 99.1296 83.1237 97.0141 85.6971 95.2193L85.9994 93.7312C87.998 84.0038 96.3253 65.6109 113.574 65.6109ZM103.485 188.99C102.387 188.99 101.525 188.575 100.897 187.744C100.27 186.912 99.9559 185.778 99.9559 184.339C99.9559 182.869 100.257 180.887 100.858 178.393C101.485 175.868 102.1 173.582 102.701 171.536C103.329 169.49 103.642 168.132 103.642 167.46C103.642 166.757 103.459 166.405 103.093 166.405C102.178 166.405 100.701 168.611 98.6617 173.023L96.0341 171.153C99.8775 163.225 103.407 159.261 106.623 159.261C108.819 159.261 109.917 160.955 109.917 164.344C109.917 165.334 109.656 166.917 109.133 169.091L106.309 178.969C106.022 179.896 105.878 180.743 105.878 181.51C105.878 182.245 106.113 182.613 106.584 182.613C107.473 182.613 109.107 180.599 111.486 176.571L113.133 178.441C111.721 181.638 110.035 184.195 108.074 186.113C106.139 188.031 104.61 188.99 103.485 188.99ZM114.663 145.115C114.663 146.394 114.31 147.561 113.604 148.616C112.898 149.671 111.943 150.198 110.741 150.198C109.538 150.198 108.636 149.766 108.035 148.903C107.433 148.008 107.133 146.889 107.133 145.547C107.133 144.204 107.499 143.021 108.231 141.998C108.989 140.943 109.956 140.416 111.133 140.416C112.309 140.416 113.185 140.88 113.761 141.807C114.362 142.702 114.663 143.805 114.663 145.115ZM137.017 165.542C136.023 165.542 134.847 166.325 133.487 167.892C132.127 169.426 130.807 171.312 129.526 173.55C127.487 177.13 125.408 181.254 123.29 185.921L122.232 188.223H116.702L117.918 183.716C120.192 175.404 121.33 170.481 121.33 168.947C121.33 167.38 121.12 166.597 120.702 166.597C119.944 166.597 119.042 167.7 117.996 169.906C117.761 170.417 117.565 170.833 117.408 171.153C117.251 171.44 117.068 171.808 116.859 172.255C116.676 172.671 116.558 172.927 116.506 173.023L113.878 171.153C115.917 167.093 117.787 164.104 119.486 162.186C121.186 160.236 122.924 159.261 124.702 159.261C125.513 159.261 126.206 159.676 126.781 160.507C127.382 161.339 127.683 162.33 127.683 163.48C127.683 164.599 127.63 165.606 127.526 166.501C127.421 167.364 127.304 168.164 127.173 168.899C127.042 169.634 126.859 170.513 126.624 171.536C126.389 172.559 126.193 173.342 126.036 173.886C125.905 174.429 125.722 175.164 125.487 176.091C125.251 177.019 125.107 177.562 125.055 177.722C125.526 176.571 126.323 174.877 127.447 172.639C128.572 170.401 129.304 168.995 129.644 168.419C129.984 167.844 130.454 167.077 131.055 166.118C131.657 165.159 132.18 164.423 132.624 163.912C133.095 163.369 133.644 162.761 134.271 162.09C134.925 161.387 135.539 160.859 136.115 160.507C137.579 159.676 138.991 159.261 140.35 159.261C141.71 159.261 142.795 159.756 143.605 160.747C144.442 161.706 144.86 162.841 144.86 164.152C144.86 165.43 144.52 166.565 143.84 167.556C143.187 168.515 142.416 168.995 141.527 168.995C140.664 168.995 139.984 168.819 139.487 168.467C138.991 168.084 138.651 167.684 138.468 167.269C137.919 166.118 137.435 165.542 137.017 165.542ZM171.607 160.316H165.489L164.312 165.926C163.946 163.944 163.162 162.346 161.959 161.131C160.756 159.884 159.24 159.261 157.41 159.261C153.749 159.261 150.56 161.019 147.841 164.535C145.122 168.052 143.762 172.367 143.762 177.482C143.762 180.775 144.546 183.524 146.115 185.73C147.71 187.903 149.815 188.99 152.429 188.99C155.07 188.99 157.436 187.776 159.527 185.346C160.626 184.099 161.371 182.661 161.763 181.03C161.711 181.382 161.684 181.91 161.684 182.613C161.684 186.864 162.809 188.99 165.057 188.99C166.966 188.99 169.214 187.344 171.803 184.051C173.136 182.357 174.234 180.487 175.097 178.441L173.411 176.523L172.509 178.057C171.933 179.08 171.227 180.103 170.391 181.126C169.58 182.117 168.94 182.613 168.469 182.613C167.998 182.613 167.763 181.798 167.763 180.167C167.763 178.505 168.012 176.667 168.508 174.653L171.607 160.316ZM154.665 165.734C155.998 164.168 157.423 163.384 158.939 163.384C161.606 163.384 162.939 165.67 162.939 170.241C162.939 174.813 161.75 178.761 159.371 182.085C158.116 183.812 156.704 184.675 155.135 184.675C153.593 184.675 152.442 184.035 151.684 182.757C150.952 181.478 150.586 179.8 150.586 177.722C150.586 175.644 150.939 173.518 151.645 171.344C152.351 169.139 153.357 167.269 154.665 165.734ZM187.882 174.749C193.346 164.423 198.248 159.261 202.588 159.261C204.053 159.261 205.151 159.804 205.883 160.891C206.615 161.978 206.981 163.353 206.981 165.015C206.981 166.677 206.366 169.554 205.138 173.646C203.935 177.738 203.334 180.279 203.334 181.27C203.334 182.229 203.53 182.709 203.922 182.709C204.445 182.709 205.216 182.053 206.236 180.743C207.255 179.4 208.157 177.994 208.942 176.523L210.589 178.441C209.02 181.926 207.295 184.563 205.412 186.353C203.556 188.111 202.039 188.99 200.863 188.99C199.712 188.99 198.81 188.527 198.157 187.6C197.503 186.641 197.176 185.346 197.176 183.716C197.176 182.085 197.699 179.432 198.745 175.756C199.817 172.048 200.353 169.426 200.353 167.892C200.353 166.325 199.922 165.542 199.059 165.542C198.065 165.542 196.889 166.325 195.529 167.892C194.17 169.426 192.849 171.312 191.568 173.55C189.529 177.13 187.45 181.254 185.333 185.921L184.274 188.223H178.744L179.96 183.716C182.234 175.404 183.372 170.481 183.372 168.947C183.372 167.38 183.163 166.597 182.744 166.597C181.986 166.597 181.084 167.7 180.038 169.906C179.803 170.417 179.607 170.833 179.45 171.153C179.293 171.44 179.11 171.808 178.901 172.255C178.718 172.671 178.6 172.927 178.548 173.023L175.92 171.153C177.96 167.093 179.829 164.104 181.529 162.186C183.228 160.236 184.967 159.261 186.745 159.261C187.555 159.261 188.248 159.676 188.823 160.507C189.424 161.339 189.725 162.346 189.725 163.528C189.725 164.711 189.647 165.878 189.49 167.029C189.333 168.148 189.163 169.091 188.98 169.858C188.823 170.593 188.601 171.552 188.313 172.735C188.052 173.918 187.908 174.589 187.882 174.749ZM59.2284 175.42L56.8165 173.335C55.6792 175.972 53.9732 178.154 51.6986 179.88C49.424 181.558 47.0513 182.397 44.5806 182.397C42.1099 182.397 40.2079 181.39 38.8745 179.376C37.5803 177.314 36.9332 174.605 36.9332 171.249C36.9332 167.892 37.5214 164.488 38.698 161.035C39.8745 157.535 41.6001 154.562 43.8747 152.116C46.1493 149.671 48.6396 148.448 51.3457 148.448C52.6006 148.448 53.9732 148.736 55.4635 149.311C53.7771 150.702 52.934 152.236 52.934 153.914C52.934 155.593 53.4046 156.983 54.3458 158.086C55.287 159.141 56.4439 159.668 57.8166 159.668C59.1892 159.668 60.3657 159.069 61.3461 157.87C62.3266 156.672 62.8168 155.209 62.8168 153.483C62.8168 151.709 62.4638 150.246 61.7579 149.095C60.0716 146.218 56.7773 144.78 51.8751 144.78C47.8749 144.78 43.9139 145.931 39.9922 148.232C36.0704 150.486 32.7565 153.771 30.0505 158.086C27.3837 162.402 26.0503 167.245 26.0503 172.615C26.0503 177.938 27.3837 182.062 30.0505 184.987C32.7565 187.912 36.0704 189.374 39.9922 189.374C43.9139 189.374 47.6592 188.127 51.228 185.634C54.836 183.093 57.5028 179.688 59.2284 175.42ZM111.638 89.1565C101.448 90.5051 93.9571 93.5663 90.4836 96.3161L90.2311 95.9987C93.7805 93.189 101.349 90.1125 111.575 88.7592C121.808 87.4049 134.721 87.7732 148.972 91.8732L148.872 92.2582C134.678 88.1745 121.82 87.809 111.638 89.1565ZM3.23234 4.2561C12.8805 10.968 35.0866 30.9964 46.6688 57.3659L47.0351 57.205C35.4144 30.7479 13.1484 10.6671 3.46077 3.92774L3.23234 4.2561Z" fill="white"/>
</svg>
