<svg xmlns="http://www.w3.org/2000/svg" xmlns:xlink="http://www.w3.org/1999/xlink" width="36" height="36" preserveAspectRatio="xMidYMid meet" viewBox="0 0 36 36" style="-ms-transform: rotate(360deg); -webkit-transform: rotate(360deg); transform: rotate(360deg);"><path class="clr-i-solid--badged clr-i-solid-path-1--badged" d="M2 14v8h32v-8zm6 5H6v-2h2zm16 0H10v-2h14z" fill="#A83DE5"/><path class="clr-i-solid--badged clr-i-solid-path-2--badged" d="M2 30a2 2 0 0 0 2 2h28a2 2 0 0 0 2-2v-6H2zm8-3h14v2H10zm-4 0h2v2H6z" fill="#A83DE5"/><path class="clr-i-solid--badged clr-i-solid-path-3--badged" d="M23.13 9H10V7h12.57a7.52 7.52 0 0 1-.07-1a7.49 7.49 0 0 1 .28-2H4a2 2 0 0 0-2 2v6h23.51a7.52 7.52 0 0 1-2.38-3zM8 9H6V7h2z" fill="#A83DE5"/><circle class="clr-i-solid--badged clr-i-solid-path-4--badged clr-i-badge" cx="30" cy="6" r="5" fill="#A83DE5"/><rect x="0" y="0" width="36" height="36" fill="rgba(0, 0, 0, 0)" /></svg>